<svg width="19" height="16" viewBox="0 0 19 16" fill="none" xmlns="http://www.w3.org/2000/svg">
<path fill-rule="evenodd" clip-rule="evenodd" d="M1.46635 1.46393C2.40399 0.526577 3.67553 0 5.00135 0C6.32717 0 7.59871 0.526577 8.53635 1.46393C8.71969 1.6466 8.95569 1.87393 9.24435 2.14593C9.53235 1.87393 9.76802 1.6466 9.95135 1.46393C10.8851 0.534604 12.1478 0.0113163 13.4652 0.00778818C14.7825 0.00426003 16.0481 0.520777 16.9867 1.44509C17.9254 2.3694 18.4614 3.62682 18.4782 4.94408C18.4949 6.26135 17.9912 7.53201 17.0764 8.47993L9.95035 15.6059C9.76283 15.7934 9.50852 15.8987 9.24335 15.8987C8.97819 15.8987 8.72388 15.7934 8.53635 15.6059L1.41035 8.48093C0.496394 7.53833 -0.0101369 6.27407 0.000153785 4.96116C0.0104444 3.64826 0.53773 2.39209 1.46635 1.46393Z" fill="black" fill-opacity="0.58"/>
</svg>
