<svg width="24" height="24" viewBox="0 0 24 24" fill="none" xmlns="http://www.w3.org/2000/svg">
<path fill-rule="evenodd" clip-rule="evenodd" d="M12 21.75C13.7116 21.7525 15.3935 21.3023 16.875 20.445V17.25C16.875 16.3549 16.5194 15.4965 15.8865 14.8635C15.2535 14.2306 14.3951 13.875 13.5 13.875H10.5C9.60489 13.875 8.74645 14.2306 8.11351 14.8635C7.48058 15.4965 7.125 16.3549 7.125 17.25V20.445C8.60649 21.3023 10.2884 21.7525 12 21.75ZM19.125 17.25V18.6555C20.4221 17.267 21.2851 15.5297 21.6081 13.6572C21.9311 11.7848 21.6999 9.85877 20.943 8.11594C20.1861 6.3731 18.9364 4.88942 17.3476 3.84727C15.7588 2.80511 13.9001 2.24991 12 2.24991C10.0999 2.24991 8.2412 2.80511 6.65239 3.84727C5.06359 4.88942 3.81392 6.3731 3.057 8.11594C2.30008 9.85877 2.06891 11.7848 2.39189 13.6572C2.71488 15.5297 3.57794 17.267 4.875 18.6555V17.25C4.87455 16.0902 5.23261 14.9586 5.90016 14.0102C6.5677 13.0618 7.51208 12.3429 8.604 11.952C8.03758 11.3005 7.67052 10.4998 7.5466 9.64545C7.42268 8.79109 7.54713 7.91911 7.90511 7.13353C8.26309 6.34794 8.83949 5.68191 9.56555 5.21488C10.2916 4.74784 11.1367 4.49951 12 4.49951C12.8633 4.49951 13.7084 4.74784 14.4344 5.21488C15.1605 5.68191 15.7369 6.34794 16.0949 7.13353C16.4529 7.91911 16.5773 8.79109 16.4534 9.64545C16.3295 10.4998 15.9624 11.3005 15.396 11.952C16.4879 12.3429 17.4323 13.0618 18.0998 14.0102C18.7674 14.9586 19.1254 16.0902 19.125 17.25ZM12 24C15.1826 24 18.2348 22.7357 20.4853 20.4853C22.7357 18.2348 24 15.1826 24 12C24 8.8174 22.7357 5.76516 20.4853 3.51472C18.2348 1.26428 15.1826 0 12 0C8.8174 0 5.76516 1.26428 3.51472 3.51472C1.26428 5.76516 0 8.8174 0 12C0 15.1826 1.26428 18.2348 3.51472 20.4853C5.76516 22.7357 8.8174 24 12 24ZM14.25 9C14.25 9.59674 14.0129 10.169 13.591 10.591C13.169 11.0129 12.5967 11.25 12 11.25C11.4033 11.25 10.831 11.0129 10.409 10.591C9.98705 10.169 9.75 9.59674 9.75 9C9.75 8.40326 9.98705 7.83097 10.409 7.40901C10.831 6.98705 11.4033 6.75 12 6.75C12.5967 6.75 13.169 6.98705 13.591 7.40901C14.0129 7.83097 14.25 8.40326 14.25 9Z" fill="#D9D9D9"/>
</svg>
