<svg width="18" height="19" viewBox="0 0 18 19" fill="none" xmlns="http://www.w3.org/2000/svg">
<path d="M11.0757 14.7716L5.96571 11.9846C5.47521 12.4715 4.85153 12.8023 4.1733 12.9352C3.49508 13.0682 2.79267 12.9974 2.15464 12.7317C1.5166 12.466 0.971504 12.0174 0.588062 11.4424C0.204619 10.8674 0 10.1917 0 9.5006C0 8.80947 0.204619 8.1338 0.588062 7.55879C0.971504 6.98378 1.5166 6.53516 2.15464 6.2695C2.79267 6.00383 3.49508 5.93302 4.1733 6.06597C4.85153 6.19893 5.47521 6.5297 5.96571 7.0166L11.0757 4.2296C10.9005 3.40733 11.027 2.54946 11.4323 1.81285C11.8376 1.07625 12.4945 0.51013 13.2828 0.218032C14.0712 -0.0740658 14.9383 -0.0726271 15.7257 0.222085C16.5131 0.516797 17.1681 1.08509 17.5709 1.82304C17.9737 2.56098 18.0975 3.41927 17.9195 4.24095C17.7415 5.06263 17.2737 5.79279 16.6016 6.2979C15.9295 6.80301 15.0981 7.04932 14.2593 6.9918C13.4206 6.93427 12.6305 6.57674 12.0337 5.9846L6.92371 8.7716C7.02592 9.25189 7.02592 9.74831 6.92371 10.2286L12.0337 13.0166C12.6305 12.4245 13.4206 12.0669 14.2593 12.0094C15.0981 11.9519 15.9295 12.1982 16.6016 12.7033C17.2737 13.2084 17.7415 13.9386 17.9195 14.7602C18.0975 15.5819 17.9737 16.4402 17.5709 17.1782C17.1681 17.9161 16.5131 18.4844 15.7257 18.7791C14.9383 19.0738 14.0712 19.0753 13.2828 18.7832C12.4945 18.4911 11.8376 17.925 11.4323 17.1883C11.027 16.4517 10.9005 15.5939 11.0757 14.7716Z" fill="black" fill-opacity="0.58"/>
</svg>
