<svg width="152" height="35" viewBox="0 0 152 35" fill="none" xmlns="http://www.w3.org/2000/svg">
<path d="M17.5 0L18.2462 5.84953C18.9726 11.5438 23.4562 16.0274 29.1505 16.7538L35 17.5L29.1505 18.2462C23.4562 18.9726 18.9726 23.4562 18.2462 29.1505L17.5 35L16.7538 29.1505C16.0274 23.4562 11.5438 18.9726 5.84953 18.2462L0 17.5L5.84953 16.7538C11.5438 16.0274 16.0274 11.5438 16.7538 5.84953L17.5 0Z" fill="#00FFFF"/>
<path d="M95.5 0L96.2462 5.84953C96.9726 11.5438 101.456 16.0274 107.15 16.7538L113 17.5L107.15 18.2462C101.456 18.9726 96.9726 23.4562 96.2462 29.1505L95.5 35L94.7538 29.1505C94.0274 23.4562 89.5438 18.9726 83.8495 18.2462L78 17.5L83.8495 16.7538C89.5438 16.0274 94.0274 11.5438 94.7538 5.84953L95.5 0Z" fill="#FFFF00"/>
<path d="M134.5 0L135.246 5.84953C135.973 11.5438 140.456 16.0274 146.15 16.7538L152 17.5L146.15 18.2462C140.456 18.9726 135.973 23.4562 135.246 29.1505L134.5 35L133.754 29.1505C133.027 23.4562 128.544 18.9726 122.85 18.2462L117 17.5L122.85 16.7538C128.544 16.0274 133.027 11.5438 133.754 5.84953L134.5 0Z" fill="#D9D9D9"/>
<path d="M56.5 0L57.2462 5.84953C57.9726 11.5438 62.4562 16.0274 68.1505 16.7538L74 17.5L68.1505 18.2462C62.4562 18.9726 57.9726 23.4562 57.2462 29.1505L56.5 35L55.7538 29.1505C55.0274 23.4562 50.5438 18.9726 44.8495 18.2462L39 17.5L44.8495 16.7538C50.5438 16.0274 55.0274 11.5438 55.7538 5.84953L56.5 0Z" fill="#E42020"/>
</svg>
