<svg width="215" height="215" viewBox="0 0 215 215" fill="none" xmlns="http://www.w3.org/2000/svg">
<path d="M107.5 0L124.71 26.5338L151.224 9.29386L156.154 40.5336L187.388 35.5685L179.185 66.1125L209.739 74.2807L189.822 98.8477L214.411 118.737L186.224 133.079L200.598 161.25L169.014 162.887L170.687 194.469L141.168 183.119L129.851 212.651L107.5 190.275L85.1495 212.651L73.8324 183.119L44.3131 194.469L45.9862 162.887L14.4023 161.25L28.7763 133.079L0.588898 118.737L25.1785 98.8477L5.26142 74.2807L35.8148 66.1125L27.6119 35.5685L58.8461 40.5336L63.7758 9.29386L90.2901 26.5338L107.5 0Z" fill="#B50E0E"/>
<path d="M86.1997 72.498C85.5931 72.0954 85.0745 71.611 84.6436 71.045C84.2258 70.4763 83.9684 69.9358 83.8716 69.4234L84.6512 68.9831C84.7531 69.4541 84.9806 69.9467 85.3336 70.4612C85.6996 70.973 86.1509 71.407 86.6875 71.7632C87.2007 72.1039 87.658 72.3178 88.0594 72.405C88.4737 72.4896 88.827 72.4721 89.1193 72.3525C89.4194 72.238 89.6572 72.0486 89.8327 71.7842C90.0443 71.4654 90.1213 71.1468 90.0638 70.8285C90.014 70.5154 89.8774 70.2063 89.6542 69.9013C89.4362 69.5885 89.1767 69.2706 88.8758 68.9476C88.5749 68.6247 88.2765 68.2978 87.9808 67.967C87.6902 67.6285 87.4475 67.2769 87.2526 66.9123C87.0655 66.5529 86.9664 66.179 86.9553 65.7907C86.9571 65.3999 87.1025 64.9867 87.3916 64.5512C87.66 64.1469 88.0102 63.8472 88.4421 63.6522C88.887 63.4546 89.3981 63.4018 89.9755 63.4939C90.5582 63.5782 91.1955 63.85 91.8875 64.3094C92.3463 64.614 92.7573 64.982 93.1206 65.4136C93.489 65.8374 93.7617 66.2705 93.9386 66.7128L93.1901 67.2074C92.9951 66.7418 92.7354 66.323 92.4111 65.9508C92.0946 65.5839 91.7536 65.2791 91.3881 65.0365C90.8982 64.7113 90.45 64.509 90.0434 64.4295C89.6368 64.3501 89.2809 64.3715 88.9757 64.4937C88.6834 64.6134 88.4444 64.8132 88.2586 65.0931C88.0469 65.4119 87.966 65.7279 88.0158 66.041C88.0734 66.3593 88.2138 66.671 88.437 66.976C88.668 67.2862 88.934 67.6027 89.2349 67.9257C89.5358 68.2487 89.8276 68.5769 90.1105 68.9103C90.401 69.2488 90.6399 69.5978 90.827 69.9572C91.027 70.3141 91.1287 70.684 91.132 71.0672C91.1431 71.4554 91.0067 71.8634 90.7228 72.2911C90.4596 72.6877 90.1055 72.9847 89.6607 73.1824C89.221 73.3722 88.706 73.4224 88.1156 73.3329C87.5381 73.2409 86.8995 72.9626 86.1997 72.498ZM93.5934 77.3894C93.018 77.0074 92.678 76.5577 92.5734 76.0401C92.4689 75.5226 92.605 74.98 92.9818 74.4124L96.7991 68.6621L97.6272 69.2118L93.8409 74.9155C93.6035 75.2732 93.5097 75.6086 93.5595 75.9217C93.6171 76.24 93.8169 76.5127 94.1591 76.7398C94.5245 76.9824 94.8975 77.0788 95.2779 77.0288L95.1746 77.8173C94.9132 77.8566 94.6427 77.8339 94.3629 77.749C94.091 77.6693 93.8345 77.5494 93.5934 77.3894ZM94.3477 69.9754L94.8045 69.2873L98.5953 71.8037L98.1384 72.4919L94.3477 69.9754ZM99.6266 81.3944C99.1056 81.0485 98.7152 80.6494 98.4555 80.1969C98.1957 79.7444 98.0861 79.2515 98.1264 78.7181C98.1746 78.19 98.3922 77.6343 98.7794 77.0511L101.141 73.4936L101.969 74.0433L99.6694 77.5075C99.2358 78.1607 99.0675 78.7603 99.1643 79.3063C99.2741 79.8497 99.6206 80.315 100.204 80.7021C100.631 80.986 101.058 81.1457 101.482 81.1811C101.92 81.2139 102.331 81.1173 102.716 80.8913C103.109 80.6705 103.461 80.3268 103.771 79.8603L105.9 76.6527L106.728 77.2024L102.663 83.326L101.87 82.7995L102.985 81.1199L102.912 81.5083C102.418 81.8303 101.88 81.9827 101.297 81.9658C100.728 81.9462 100.171 81.7557 99.6266 81.3944ZM108.07 86.9993C107.487 86.6121 107.05 86.1315 106.758 85.5574C106.475 84.9885 106.356 84.383 106.402 83.7409C106.452 83.0911 106.681 82.459 107.089 81.8447C107.502 81.2226 107.995 80.766 108.57 80.475C109.144 80.1839 109.745 80.0624 110.374 80.1103C111.016 80.1557 111.629 80.3719 112.212 80.759C112.749 81.1152 113.147 81.5532 113.407 82.073C113.675 82.598 113.778 83.1763 113.717 83.808C113.669 84.4372 113.423 85.0861 112.979 85.7548C112.541 86.4158 112.042 86.897 111.483 87.1983C110.925 87.4997 110.349 87.6329 109.756 87.5978C109.176 87.5601 108.614 87.3606 108.07 86.9993ZM108.616 86.3031C109.051 86.5922 109.505 86.7531 109.976 86.7858C110.46 86.8159 110.918 86.7167 111.35 86.488C111.795 86.2568 112.175 85.904 112.489 85.4296C112.809 84.9475 112.987 84.4605 113.022 83.9686C113.065 83.4819 112.977 83.0252 112.756 82.5985C112.548 82.1692 112.226 81.81 111.791 81.5209C111.363 81.237 110.911 81.0826 110.435 81.0576C109.963 81.0249 109.508 81.1203 109.068 81.3438C108.629 81.5673 108.249 81.9201 107.929 82.4022C107.614 82.8765 107.436 83.3635 107.396 83.8632C107.361 84.3551 107.447 84.8157 107.655 85.245C107.868 85.6665 108.188 86.0192 108.616 86.3031ZM110.476 88.5127L111.7 86.6698L112.602 85.4877L113.306 84.1739L116.187 79.8349L117.015 80.3846L111.27 89.0393L110.476 88.5127ZM116.838 92.8198C116.2 92.3966 115.728 91.8927 115.422 91.3083C115.12 90.7161 114.988 90.0964 115.026 89.4492C115.069 88.7942 115.291 88.1634 115.694 87.5569C116.097 86.9503 116.581 86.499 117.147 86.2028C117.721 85.9117 118.322 85.7837 118.948 85.8187C119.588 85.8511 120.191 86.0557 120.759 86.4325C121.334 86.8145 121.756 87.2848 122.024 87.8434C122.304 88.3994 122.415 88.9997 122.357 89.6444C122.304 90.2813 122.074 90.9069 121.666 91.5212C121.64 91.5601 121.608 91.6003 121.569 91.6418C121.543 91.6807 121.515 91.7234 121.484 91.7701L116.153 88.2316L116.564 87.6134L121.451 90.8577L120.962 90.8858C121.256 90.4426 121.419 89.9854 121.452 89.5142C121.498 89.0404 121.422 88.5979 121.224 88.1867C121.027 87.7755 120.714 87.4279 120.287 87.144C119.867 86.8653 119.425 86.7121 118.962 86.6846C118.498 86.657 118.057 86.7562 117.638 86.9823C117.219 87.2083 116.86 87.5468 116.561 87.9978L116.475 88.1261C116.166 88.5927 115.993 89.0719 115.958 89.5638C115.936 90.0531 116.04 90.5201 116.271 90.9649C116.516 91.4071 116.875 91.7856 117.349 92.1005C117.722 92.3483 118.112 92.5119 118.519 92.5913C118.933 92.6759 119.347 92.6596 119.761 92.5423L119.872 93.3885C119.383 93.5345 118.875 93.5562 118.35 93.4537C117.832 93.3563 117.328 93.145 116.838 92.8198ZM129.245 92.0656C129.742 92.3959 130.113 92.7822 130.357 93.2244C130.615 93.6639 130.719 94.1478 130.671 94.676C130.631 95.2093 130.414 95.7714 130.022 96.3624L127.66 99.9199L126.832 99.3702L129.14 95.8943C129.568 95.2489 129.727 94.6545 129.617 94.1111C129.521 93.5651 129.181 93.0985 128.597 92.7114C128.162 92.4223 127.722 92.2588 127.276 92.2209C126.844 92.1803 126.427 92.2678 126.026 92.4835C125.639 92.6965 125.29 93.0363 124.98 93.5029L122.843 96.7221L122.015 96.1724L126.08 90.0488L126.873 90.5753L125.758 92.2549L125.839 91.8548C126.327 91.5406 126.868 91.4011 127.461 91.4362C128.059 91.4635 128.654 91.6733 129.245 92.0656ZM132.495 103.213C131.919 102.831 131.579 102.381 131.475 101.864C131.37 101.346 131.506 100.804 131.883 100.236L135.7 94.4858L136.528 95.0355L132.742 100.739C132.505 101.097 132.411 101.432 132.461 101.745C132.518 102.064 132.718 102.336 133.06 102.564C133.426 102.806 133.799 102.902 134.179 102.853L134.076 103.641C133.814 103.68 133.544 103.658 133.264 103.573C132.992 103.493 132.736 103.373 132.495 103.213ZM133.249 95.7991L133.706 95.1109L137.496 97.6274L137.04 98.3155L133.249 95.7991ZM137.641 106.63C137.136 106.294 136.704 105.907 136.346 105.467C135.993 105.02 135.761 104.603 135.648 104.214L136.455 103.809C136.58 104.161 136.791 104.536 137.087 104.934C137.388 105.324 137.752 105.661 138.18 105.945C138.763 106.332 139.242 106.522 139.617 106.513C139.998 106.497 140.289 106.337 140.49 106.034C140.64 105.808 140.682 105.584 140.617 105.362C140.565 105.137 140.443 104.916 140.251 104.699C140.064 104.474 139.842 104.242 139.585 104.005C139.329 103.767 139.077 103.522 138.831 103.269C138.592 103.021 138.395 102.761 138.239 102.489C138.088 102.21 138.009 101.916 138 101.608C138 101.305 138.116 100.979 138.348 100.629C138.57 100.295 138.862 100.057 139.224 99.9168C139.586 99.7763 139.995 99.7509 140.451 99.8406C140.92 99.9277 141.414 100.144 141.935 100.49C142.332 100.753 142.692 101.071 143.017 101.443C143.346 101.807 143.582 102.16 143.725 102.502L142.923 102.927C142.774 102.559 142.57 102.234 142.311 101.949C142.057 101.657 141.774 101.408 141.463 101.202C140.911 100.835 140.438 100.661 140.045 100.68C139.664 100.696 139.376 100.852 139.18 101.148C139.025 101.381 138.974 101.61 139.026 101.835C139.086 102.066 139.207 102.297 139.388 102.53C139.583 102.76 139.805 102.991 140.054 103.223C140.31 103.461 140.555 103.708 140.789 103.964C141.035 104.217 141.237 104.479 141.392 104.751C141.561 105.02 141.646 105.305 141.646 105.608C141.66 105.909 141.556 106.226 141.334 106.56C141.096 106.918 140.789 107.162 140.411 107.292C140.046 107.42 139.624 107.431 139.145 107.326C138.679 107.218 138.178 106.986 137.641 106.63ZM148.64 113.931C148.049 113.539 147.605 113.053 147.306 112.474C147.02 111.892 146.896 111.277 146.933 110.63C146.976 109.975 147.199 109.344 147.601 108.738C148.009 108.124 148.504 107.673 149.086 107.388C149.668 107.102 150.28 106.981 150.922 107.027C151.564 107.072 152.184 107.293 152.783 107.691C153.389 108.094 153.838 108.582 154.129 109.156C154.428 109.735 154.555 110.346 154.509 110.988C154.472 111.635 154.249 112.266 153.841 112.88C153.439 113.487 152.944 113.937 152.357 114.231C151.783 114.522 151.168 114.646 150.513 114.603C149.863 114.553 149.239 114.329 148.64 113.931ZM149.128 113.196C149.571 113.491 150.029 113.654 150.5 113.687C150.976 113.712 151.43 113.61 151.862 113.381C152.307 113.15 152.687 112.797 153.002 112.323C153.322 111.841 153.499 111.354 153.535 110.862C153.578 110.375 153.493 109.921 153.28 109.499C153.072 109.07 152.75 108.711 152.314 108.422C151.879 108.133 151.423 107.976 150.947 107.951C150.476 107.918 150.02 108.013 149.581 108.237C149.141 108.46 148.761 108.813 148.441 109.295C148.126 109.77 147.948 110.257 147.908 110.756C147.873 111.248 147.959 111.709 148.167 112.138C148.38 112.56 148.701 112.912 149.128 113.196ZM154.336 117.628L158.912 110.734C159.273 110.19 159.724 109.857 160.265 109.734C160.806 109.611 161.375 109.748 161.974 110.146C162.207 110.301 162.412 110.482 162.589 110.688C162.765 110.895 162.883 111.114 162.943 111.344L162.253 111.776C162.203 111.598 162.116 111.433 161.992 111.284C161.872 111.126 161.723 110.988 161.544 110.869C161.195 110.637 160.862 110.556 160.546 110.626C160.23 110.697 159.946 110.923 159.693 111.304L159.074 112.237L158.842 112.637L155.164 118.177L154.336 117.628ZM156.847 111.465L157.304 110.776L161.095 113.293L160.638 113.981L156.847 111.465ZM60.7059 79.2224C60.4571 79.0572 60.2432 78.8648 60.0641 78.6451C59.8721 78.4281 59.7422 78.2018 59.6745 77.9664L60.3842 77.5301C60.4937 77.9052 60.7428 78.2218 61.1316 78.4799C61.4582 78.6967 61.7715 78.7647 62.0716 78.6839C62.3795 78.6082 62.66 78.3799 62.9129 77.9988L67.2799 71.4204L68.108 71.9701L63.741 78.5486C63.3642 79.1162 62.9093 79.464 62.3763 79.5919C61.8459 79.7327 61.2891 79.6096 60.7059 79.2224ZM68.5979 70.3461C68.4269 70.2325 68.3217 70.0787 68.2825 69.8846C68.2433 69.6906 68.2779 69.5119 68.3863 69.3486C68.4947 69.1853 68.6434 69.0879 68.8323 69.0565C69.0263 69.0173 69.2089 69.0545 69.38 69.168C69.551 69.2816 69.6588 69.4315 69.7031 69.6178C69.7475 69.8041 69.7155 69.9789 69.6071 70.1422C69.4935 70.3133 69.3397 70.4184 69.1457 70.4576C68.9594 70.502 68.7768 70.4648 68.5979 70.3461ZM69.5145 81.8099C68.9235 81.4175 68.4786 80.9318 68.1798 80.3525C67.8939 79.7706 67.7697 79.1561 67.8073 78.5089C67.85 77.8539 68.0727 77.2231 68.4753 76.6166C68.8831 76.0023 69.3779 75.5522 69.9598 75.2663C70.5417 74.9804 71.1537 74.8601 71.7957 74.9054C72.4378 74.9508 73.0582 75.1722 73.6569 75.5696C74.2635 75.9723 74.7123 76.4606 75.0033 77.0347C75.3021 77.614 75.4289 78.2246 75.3836 78.8667C75.346 79.5139 75.1233 80.1447 74.7155 80.759C74.3129 81.3655 73.8181 81.8156 73.231 82.1093C72.6569 82.4003 72.0424 82.5245 71.3874 82.4818C70.7376 82.4313 70.1133 82.2073 69.5145 81.8099ZM70.0023 81.075C70.4455 81.3693 70.9027 81.5327 71.3739 81.5655C71.8503 81.5904 72.3044 81.4886 72.7362 81.2599C73.181 81.0286 73.5609 80.6758 73.8757 80.2015C74.1958 79.7194 74.3734 79.2324 74.4087 78.7405C74.4517 78.2537 74.3667 77.7996 74.1536 77.3781C73.9457 76.9488 73.624 76.5896 73.1885 76.3005C72.7531 76.0115 72.2972 75.8545 71.8208 75.8295C71.3496 75.7968 70.8942 75.8922 70.4546 76.1157C70.015 76.3391 69.6352 76.6919 69.3151 77.174C69.0002 77.6484 68.8226 78.1354 68.7822 78.6351C68.7469 79.127 68.8332 79.5876 69.0411 80.0169C69.2542 80.4384 69.5746 80.7911 70.0023 81.075ZM77.5621 87.1521C77.0411 86.8062 76.6507 86.407 76.391 85.9546C76.1312 85.5021 76.0215 85.0091 76.0619 84.4758C76.1101 83.9476 76.3277 83.392 76.7148 82.8088L79.0764 79.2513L79.9046 79.801L77.6049 83.2652C77.1713 83.9184 77.0029 84.518 77.0998 85.064C77.2096 85.6074 77.5561 86.0726 78.1393 86.4598C78.567 86.7437 78.9931 86.9033 79.4177 86.9387C79.8552 86.9715 80.2666 86.8749 80.6519 86.649C81.0449 86.4282 81.3963 86.0845 81.706 85.6179L83.8353 82.4103L84.6635 82.9601L80.5984 89.0837L79.8053 88.5572L80.9203 86.8775L80.8473 87.266C80.3535 87.5879 79.8153 87.7404 79.2329 87.7235C78.6633 87.7039 78.1064 87.5134 77.5621 87.1521ZM83.6063 91.0804L87.6713 84.9568L88.4644 85.4833L87.3572 87.1512L87.4691 86.8054C87.9499 86.4524 88.4725 86.2896 89.0369 86.317C89.6064 86.3366 90.1905 86.5451 90.7893 86.9426L90.255 87.7474C90.2239 87.7267 90.1928 87.7061 90.1617 87.6854C90.1358 87.657 90.1073 87.6325 90.0762 87.6118C89.4308 87.1834 88.7937 87.0462 88.165 87.2001C87.5414 87.3463 86.9896 87.781 86.5095 88.5042L84.4344 91.6301L83.6063 91.0804ZM96.1262 90.4854C96.6239 90.8157 96.9948 91.202 97.239 91.6442C97.4961 92.0837 97.6006 92.5676 97.5525 93.0958C97.5121 93.6291 97.2958 94.1912 96.9035 94.7822L94.5419 98.3397L93.7137 97.79L96.0211 94.3141C96.4496 93.6687 96.6089 93.0743 96.4991 92.5309C96.4022 91.9849 96.0622 91.5183 95.479 91.1312C95.0436 90.8421 94.6032 90.6786 94.1579 90.6407C93.7255 90.6001 93.3089 90.6876 92.9081 90.9033C92.5202 91.1163 92.1714 91.4561 91.8617 91.9227L89.7247 95.1419L88.8965 94.5922L92.9615 88.4686L93.7547 88.9951L92.6397 90.6747L92.7205 90.2746C93.2091 89.9604 93.7498 89.8209 94.3427 89.856C94.9407 89.8833 95.5352 90.0931 96.1262 90.4854ZM101.316 102.837L102.214 101.484L102.326 101.239L103.829 98.976C104.174 98.455 104.292 97.9564 104.183 97.4803C104.081 97.0094 103.742 96.583 103.167 96.201C102.77 95.9377 102.349 95.7535 101.904 95.6482C101.458 95.543 101.039 95.5166 100.646 95.5692L100.683 94.7032C101.169 94.6453 101.677 94.6909 102.205 94.84C102.739 94.9813 103.246 95.212 103.729 95.532C104.522 96.0585 105 96.662 105.165 97.3425C105.342 98.0204 105.165 98.7598 104.633 99.5607L102.109 103.363L101.316 102.837ZM99.1662 101.493C98.7074 101.189 98.356 100.849 98.1119 100.474C97.8808 100.097 97.7636 99.7166 97.7602 99.3335C97.762 98.9426 97.8791 98.5722 98.1114 98.2223C98.323 97.9035 98.5879 97.6648 98.906 97.5063C99.237 97.3451 99.6252 97.3003 100.071 97.372C100.529 97.4409 101.05 97.669 101.633 98.0562L103.744 99.4576L103.334 100.076L101.246 98.6898C100.655 98.2975 100.173 98.1289 99.8004 98.184C99.4355 98.2443 99.1498 98.4299 98.9433 98.741C98.7111 99.0909 98.6613 99.4611 98.7941 99.8518C98.9269 100.242 99.2382 100.6 99.7281 100.925C100.195 101.235 100.665 101.396 101.139 101.408C101.625 101.417 102.081 101.272 102.504 100.971L102.312 101.666C101.888 101.967 101.401 102.109 100.853 102.092C100.312 102.08 99.7494 101.881 99.1662 101.493ZM105.058 105.321L110.804 96.6662L111.632 97.216L105.887 105.871L105.058 105.321ZM108.891 107.865L112.956 101.741L113.784 102.291L109.719 108.415L108.891 107.865ZM114.274 100.667C114.103 100.553 113.998 100.4 113.958 100.206C113.919 100.011 113.954 99.8328 114.062 99.6695C114.17 99.5062 114.319 99.4088 114.508 99.3774C114.702 99.3382 114.885 99.3754 115.056 99.4889C115.227 99.6025 115.335 99.7524 115.379 99.9387C115.423 100.125 115.391 100.3 115.283 100.463C115.169 100.634 115.016 100.739 114.821 100.779C114.635 100.823 114.453 100.786 114.274 100.667ZM114.329 111.559C113.823 111.223 113.392 110.836 113.034 110.397C112.681 109.949 112.448 109.532 112.336 109.144L113.143 108.738C113.268 109.09 113.478 109.465 113.774 109.863C114.075 110.253 114.44 110.591 114.867 110.874C115.45 111.262 115.93 111.451 116.305 111.442C116.685 111.426 116.976 111.266 117.178 110.963C117.327 110.738 117.37 110.514 117.305 110.291C117.252 110.066 117.13 109.845 116.938 109.628C116.751 109.403 116.53 109.172 116.273 108.934C116.016 108.696 115.765 108.451 115.518 108.198C115.279 107.95 115.082 107.69 114.926 107.419C114.776 107.139 114.696 106.846 114.688 106.538C114.687 106.235 114.803 105.908 115.035 105.558C115.257 105.224 115.549 104.987 115.911 104.846C116.274 104.706 116.683 104.68 117.138 104.77C117.607 104.857 118.102 105.073 118.623 105.419C119.019 105.683 119.38 106 119.704 106.372C120.034 106.737 120.27 107.09 120.413 107.431L119.61 107.856C119.462 107.489 119.258 107.163 118.999 106.879C118.744 106.587 118.462 106.337 118.151 106.131C117.598 105.764 117.126 105.591 116.732 105.609C116.352 105.626 116.063 105.782 115.867 106.077C115.712 106.31 115.661 106.54 115.713 106.765C115.773 106.995 115.894 107.226 116.076 107.459C116.27 107.689 116.492 107.92 116.741 108.153C116.998 108.39 117.243 108.637 117.476 108.893C117.723 109.146 117.924 109.408 118.08 109.68C118.249 109.949 118.333 110.235 118.334 110.538C118.347 110.838 118.243 111.155 118.021 111.489C117.784 111.847 117.476 112.091 117.099 112.221C116.734 112.349 116.312 112.36 115.833 112.255C115.367 112.147 114.865 111.915 114.329 111.559ZM130.873 113.551C131.371 113.882 131.738 114.266 131.974 114.703C132.224 115.137 132.321 115.616 132.265 116.139C132.216 116.667 131.996 117.226 131.604 117.817L129.242 121.375L128.414 120.825L130.722 117.349C131.15 116.704 131.317 116.115 131.223 115.582C131.142 115.046 130.821 114.592 130.261 114.221C129.841 113.942 129.416 113.789 128.987 113.761C128.57 113.731 128.165 113.826 127.772 114.047C127.392 114.265 127.047 114.607 126.737 115.074L124.6 118.293L123.772 117.743L126.079 114.268C126.508 113.622 126.675 113.033 126.581 112.5C126.492 111.959 126.167 111.503 125.607 111.131C125.195 110.858 124.774 110.707 124.344 110.679C123.92 110.644 123.511 110.737 123.118 110.957C122.738 111.176 122.393 111.518 122.083 111.985L119.946 115.204L119.118 114.654L123.183 108.53L123.976 109.057L122.877 110.713L122.942 110.337C123.423 110.017 123.952 109.87 124.529 109.895C125.119 109.917 125.698 110.116 126.266 110.493C126.865 110.891 127.273 111.38 127.492 111.962C127.716 112.536 127.691 113.164 127.418 113.846L127.177 113.501C127.686 113.122 128.267 112.93 128.919 112.926C129.584 112.92 130.236 113.128 130.873 113.551ZM139.778 128.369L140.676 127.016L140.788 126.771L142.29 124.508C142.636 123.987 142.754 123.489 142.645 123.012C142.543 122.542 142.204 122.115 141.629 121.733C141.232 121.47 140.811 121.286 140.366 121.18C139.92 121.075 139.501 121.049 139.107 121.101L139.145 120.235C139.631 120.177 140.139 120.223 140.667 120.372C141.201 120.513 141.708 120.744 142.19 121.064C142.984 121.591 143.462 122.194 143.627 122.875C143.804 123.552 143.627 124.292 143.095 125.093L140.571 128.895L139.778 128.369ZM137.628 127.026C137.169 126.721 136.818 126.381 136.574 126.006C136.343 125.629 136.225 125.249 136.222 124.866C136.224 124.475 136.341 124.104 136.573 123.754C136.785 123.436 137.05 123.197 137.368 123.038C137.699 122.877 138.087 122.832 138.532 122.904C138.991 122.973 139.512 123.201 140.095 123.588L142.206 124.99L141.796 125.608L139.708 124.222C139.117 123.83 138.635 123.661 138.262 123.716C137.897 123.776 137.612 123.962 137.405 124.273C137.173 124.623 137.123 124.993 137.256 125.384C137.389 125.774 137.7 126.132 138.19 126.458C138.657 126.767 139.127 126.928 139.6 126.94C140.087 126.95 140.542 126.804 140.966 126.503L140.774 127.198C140.35 127.499 139.863 127.641 139.314 127.624C138.773 127.612 138.211 127.413 137.628 127.026ZM150.75 126.746C151.248 127.077 151.619 127.463 151.863 127.905C152.12 128.345 152.224 128.828 152.176 129.357C152.136 129.89 151.92 130.452 151.527 131.043L149.166 134.601L148.338 134.051L150.645 130.575C151.073 129.93 151.233 129.335 151.123 128.792C151.026 128.246 150.686 127.779 150.103 127.392C149.667 127.103 149.227 126.939 148.782 126.901C148.349 126.861 147.933 126.948 147.532 127.164C147.144 127.377 146.795 127.717 146.485 128.183L144.348 131.403L143.52 130.853L147.585 124.729L148.378 125.256L147.263 126.936L147.344 126.535C147.833 126.221 148.374 126.082 148.966 126.117C149.565 126.144 150.159 126.354 150.75 126.746ZM154.501 138.227C153.918 137.839 153.481 137.359 153.19 136.785C152.907 136.216 152.788 135.61 152.833 134.968C152.884 134.318 153.113 133.686 153.521 133.072C153.934 132.45 154.427 131.993 155.001 131.702C155.575 131.411 156.177 131.29 156.806 131.338C157.448 131.383 158.061 131.599 158.644 131.986C159.18 132.343 159.579 132.781 159.839 133.3C160.106 133.825 160.21 134.404 160.149 135.035C160.101 135.665 159.855 136.313 159.411 136.982C158.972 137.643 158.474 138.124 157.915 138.426C157.356 138.727 156.781 138.86 156.188 138.825C155.608 138.787 155.046 138.588 154.501 138.227ZM155.048 137.531C155.483 137.82 155.936 137.98 156.408 138.013C156.892 138.043 157.35 137.944 157.782 137.715C158.226 137.484 158.606 137.131 158.921 136.657C159.241 136.175 159.419 135.688 159.454 135.196C159.497 134.709 159.408 134.253 159.187 133.826C158.979 133.397 158.658 133.037 158.222 132.748C157.795 132.464 157.342 132.31 156.866 132.285C156.395 132.252 155.94 132.348 155.5 132.571C155.06 132.795 154.68 133.147 154.36 133.63C154.046 134.104 153.868 134.591 153.827 135.091C153.792 135.582 153.879 136.043 154.086 136.472C154.3 136.894 154.62 137.247 155.048 137.531ZM156.908 139.74L158.131 137.897L159.034 136.715L159.738 135.401L162.618 131.062L163.446 131.612L157.701 140.267L156.908 139.74ZM62.8159 88.7778C63.3136 89.1081 63.6806 89.4918 63.917 89.9288C64.1664 90.3632 64.2631 90.8419 64.2072 91.3649C64.159 91.8931 63.9388 92.4527 63.5465 93.0436L61.1849 96.6012L60.3568 96.0514L62.6642 92.5755C63.0926 91.9301 63.2597 91.3409 63.1655 90.8078C63.0842 90.2722 62.7636 89.8185 62.2037 89.4468C61.7838 89.1681 61.359 89.0149 60.9292 88.9873C60.5124 88.957 60.1075 89.0523 59.7144 89.2731C59.3343 89.4913 58.9894 89.8337 58.6797 90.3002L56.5427 93.5195L55.7145 92.9697L58.0219 89.4939C58.4503 88.8485 58.6174 88.2592 58.5232 87.7262C58.4341 87.1853 58.1097 86.7291 57.5498 86.3574C57.1377 86.0838 56.7167 85.9332 56.287 85.9056C55.8624 85.8702 55.4535 85.9629 55.0605 86.1837C54.6804 86.4019 54.3355 86.7443 54.0258 87.2108L51.8888 90.4301L51.0606 89.8803L55.1256 83.7568L55.9188 84.2833L54.8193 85.9396L54.8845 85.5628C55.3654 85.2434 55.8945 85.0961 56.4718 85.1209C57.062 85.143 57.641 85.3425 58.2086 85.7193C58.8074 86.1168 59.216 86.6065 59.4346 87.1885C59.6584 87.7628 59.6337 88.3906 59.3607 89.0719L59.1193 88.7268C59.6285 88.3479 60.2092 88.1565 60.8616 88.1526C61.5268 88.1461 62.1783 88.3545 62.8159 88.7778ZM66.693 100.342C66.0553 99.9183 65.5832 99.4144 65.2766 98.83C64.9752 98.2378 64.8432 97.6181 64.8808 96.9709C64.9235 96.3159 65.1462 95.6851 65.5488 95.0786C65.9514 94.4721 66.4359 94.0207 67.0022 93.7245C67.5763 93.4334 68.1766 93.3054 68.8032 93.3404C69.4426 93.3728 70.0461 93.5774 70.6138 93.9542C71.1892 94.3362 71.6108 94.8065 71.8785 95.3651C72.1592 95.9211 72.2704 96.5215 72.2121 97.1661C72.159 97.803 71.9285 98.4286 71.5208 99.0429C71.4949 99.0818 71.4627 99.122 71.4239 99.1635C71.3981 99.2024 71.3697 99.2452 71.3388 99.2918L66.0083 95.7533L66.4187 95.1351L71.3059 98.3794L70.8167 98.4075C71.1109 97.9643 71.2744 97.5071 71.3071 97.0359C71.3528 96.5621 71.2769 96.1196 71.0793 95.7084C70.8818 95.2972 70.5692 94.9496 70.1415 94.6657C69.7216 94.387 69.2799 94.2338 68.8165 94.2063C68.3531 94.1787 67.9119 94.278 67.493 94.504C67.0741 94.73 66.715 95.0685 66.4156 95.5195L66.3304 95.6478C66.0207 96.1144 65.8482 96.5936 65.8129 97.0855C65.7906 97.5748 65.895 98.0419 66.1263 98.4867C66.3705 98.9288 66.7298 99.3074 67.2041 99.6222C67.5773 99.87 67.9673 100.034 68.3738 100.113C68.7882 100.198 69.2023 100.181 69.6163 100.064L69.7266 100.91C69.2377 101.056 68.7304 101.078 68.2047 100.975C67.6868 100.878 67.1829 100.667 66.693 100.342ZM74.2689 105.371C73.6857 104.984 73.2486 104.503 72.9575 103.929C72.6742 103.36 72.5553 102.754 72.6006 102.112C72.6511 101.462 72.8802 100.83 73.288 100.216C73.701 99.594 74.1945 99.1375 74.7686 98.8464C75.3427 98.5554 75.9443 98.4338 76.5734 98.4818C77.2155 98.5271 77.8281 98.7433 78.4113 99.1305C78.9479 99.4866 79.3461 99.9246 79.606 100.444C79.8736 100.969 79.977 101.548 79.9161 102.179C79.8682 102.809 79.6223 103.458 79.1783 104.126C78.7396 104.787 78.2409 105.268 77.6824 105.57C77.1238 105.871 76.5481 106.004 75.9553 105.969C75.3753 105.932 74.8132 105.732 74.2689 105.371ZM74.815 104.675C75.2505 104.964 75.7038 105.125 76.175 105.157C76.6591 105.187 77.1171 105.088 77.549 104.859C77.9937 104.628 78.3736 104.275 78.6884 103.801C79.0085 103.319 79.1861 102.832 79.2214 102.34C79.2645 101.853 79.1755 101.397 78.9547 100.97C78.7467 100.541 78.4251 100.181 77.9896 99.8923C77.5619 99.6084 77.1099 99.454 76.6335 99.4291C76.1624 99.3963 75.707 99.4917 75.2673 99.7152C74.8277 99.9387 74.4479 100.291 74.1278 100.774C73.813 101.248 73.6353 101.735 73.5949 102.235C73.5596 102.727 73.6459 103.187 73.8539 103.616C74.067 104.038 74.3873 104.391 74.815 104.675ZM76.6754 106.884L77.8988 105.041L78.8012 103.859L79.5053 102.545L82.3856 98.2063L83.2138 98.756L77.4685 107.411L76.6754 106.884ZM80.4747 109.406L84.5398 103.283L85.3679 103.832L81.3029 109.956L80.4747 109.406ZM85.8578 102.208C85.6868 102.095 85.5816 101.941 85.5424 101.747C85.5032 101.553 85.5378 101.374 85.6462 101.211C85.7546 101.048 85.9032 100.95 86.0922 100.919C86.2862 100.88 86.4688 100.917 86.6399 101.03C86.8109 101.144 86.9187 101.294 86.963 101.48C87.0074 101.666 86.9754 101.841 86.867 102.005C86.7534 102.176 86.5996 102.281 86.4055 102.32C86.2192 102.364 86.0367 102.327 85.8578 102.208ZM88.1444 114.498L89.0426 113.145L89.1547 112.9L90.6569 110.637C91.0027 110.116 91.1208 109.617 91.0111 109.141C90.9093 108.67 90.5706 108.244 89.9952 107.862C89.5986 107.599 89.1776 107.414 88.7321 107.309C88.2867 107.204 87.8673 107.178 87.4739 107.23L87.5111 106.364C87.9976 106.306 88.5051 106.352 89.0334 106.501C89.567 106.642 90.0748 106.873 90.5569 107.193C91.35 107.72 91.8288 108.323 91.9932 109.004C92.1706 109.681 91.9934 110.421 91.4618 111.222L88.9376 115.024L88.1444 114.498ZM85.9946 113.155C85.5358 112.85 85.1843 112.51 84.9403 112.135C84.7091 111.758 84.5919 111.378 84.5886 110.994C84.5904 110.604 84.7074 110.233 84.9397 109.883C85.1514 109.564 85.4162 109.326 85.7343 109.167C86.0653 109.006 86.4535 108.961 86.8989 109.033C87.3572 109.102 87.878 109.33 88.4612 109.717L90.5724 111.119L90.162 111.737L88.0742 110.351C87.4832 109.959 87.0014 109.79 86.6287 109.845C86.2638 109.905 85.9782 110.091 85.7717 110.402C85.5394 110.752 85.4897 111.122 85.6224 111.513C85.7552 111.903 86.0666 112.261 86.5565 112.586C87.023 112.896 87.4932 113.057 87.9669 113.069C88.4536 113.078 88.9089 112.933 89.3328 112.632L89.14 113.327C88.7161 113.628 88.2297 113.77 87.6809 113.753C87.1399 113.741 86.5777 113.542 85.9946 113.155ZM99.4767 122.02L100.375 120.667L100.487 120.422L101.989 118.16C102.335 117.639 102.453 117.14 102.343 116.664C102.242 116.193 101.903 115.767 101.327 115.385C100.931 115.121 100.51 114.937 100.064 114.832C99.619 114.727 99.1996 114.7 98.8062 114.753L98.8433 113.887C99.3299 113.829 99.8373 113.875 100.366 114.024C100.899 114.165 101.407 114.396 101.889 114.716C102.682 115.242 103.161 115.846 103.326 116.526C103.503 117.204 103.326 117.943 102.794 118.744L100.27 122.547L99.4767 122.02ZM97.3268 120.677C96.868 120.373 96.5166 120.033 96.2725 119.658C96.0414 119.281 95.9242 118.9 95.9208 118.517C95.9227 118.126 96.0397 117.756 96.272 117.406C96.4836 117.087 96.7485 116.848 97.0666 116.69C97.3976 116.529 97.7858 116.484 98.2312 116.556C98.6895 116.625 99.2103 116.853 99.7935 117.24L101.905 118.641L101.494 119.259L99.4064 117.874C98.8154 117.481 98.3336 117.313 97.961 117.368C97.5961 117.428 97.3104 117.614 97.104 117.925C96.8717 118.275 96.8219 118.645 96.9547 119.035C97.0875 119.426 97.3988 119.784 97.8887 120.109C98.3553 120.419 98.8254 120.58 99.2992 120.592C99.7858 120.601 100.241 120.455 100.665 120.154L100.472 120.85C100.048 121.151 99.562 121.293 99.0132 121.276C98.4721 121.264 97.91 121.064 97.3268 120.677ZM103.219 124.505L107.284 118.381L108.077 118.908L106.97 120.575L107.082 120.23C107.563 119.877 108.085 119.714 108.65 119.741C109.219 119.761 109.803 119.969 110.402 120.367L109.868 121.172C109.837 121.151 109.806 121.13 109.774 121.11C109.749 121.081 109.72 121.057 109.689 121.036C109.043 120.608 108.406 120.47 107.778 120.624C107.154 120.771 106.602 121.205 106.122 121.928L104.047 125.054L103.219 124.505ZM111.015 129.764C110.377 129.34 109.905 128.836 109.598 128.252C109.297 127.66 109.165 127.04 109.202 126.393C109.245 125.738 109.468 125.107 109.87 124.501C110.273 123.894 110.758 123.443 111.324 123.146C111.898 122.855 112.498 122.727 113.125 122.762C113.764 122.795 114.368 122.999 114.935 123.376C115.511 123.758 115.932 124.229 116.2 124.787C116.481 125.343 116.592 125.943 116.534 126.588C116.481 127.225 116.25 127.851 115.842 128.465C115.817 128.504 115.784 128.544 115.746 128.586C115.72 128.624 115.691 128.667 115.66 128.714L110.33 125.175L110.74 124.557L115.628 127.801L115.138 127.83C115.433 127.386 115.596 126.929 115.629 126.458C115.674 125.984 115.599 125.542 115.401 125.13C115.203 124.719 114.891 124.372 114.463 124.088C114.043 123.809 113.602 123.656 113.138 123.628C112.675 123.601 112.234 123.7 111.815 123.926C111.396 124.152 111.037 124.491 110.737 124.942L110.652 125.07C110.342 125.536 110.17 126.016 110.135 126.508C110.112 126.997 110.217 127.464 110.448 127.909C110.692 128.351 111.051 128.729 111.526 129.044C111.899 129.292 112.289 129.456 112.696 129.535C113.11 129.62 113.524 129.603 113.938 129.486L114.048 130.332C113.559 130.478 113.052 130.5 112.526 130.397C112.008 130.3 111.505 130.089 111.015 129.764ZM131.699 134.505C132.197 134.835 132.564 135.219 132.8 135.656C133.05 136.09 133.147 136.569 133.091 137.092C133.042 137.62 132.822 138.179 132.43 138.77L130.068 142.328L129.24 141.778L131.548 138.302C131.976 137.657 132.143 137.068 132.049 136.535C131.968 135.999 131.647 135.545 131.087 135.174C130.667 134.895 130.242 134.742 129.813 134.714C129.396 134.684 128.991 134.779 128.598 135C128.218 135.218 127.873 135.56 127.563 136.027L125.426 139.246L124.598 138.697L126.905 135.221C127.334 134.575 127.501 133.986 127.407 133.453C127.318 132.912 126.993 132.456 126.433 132.084C126.021 131.811 125.6 131.66 125.17 131.632C124.746 131.597 124.337 131.69 123.944 131.911C123.564 132.129 123.219 132.471 122.909 132.938L120.772 136.157L119.944 135.607L124.009 129.484L124.802 130.01L123.703 131.666L123.768 131.29C124.249 130.97 124.778 130.823 125.355 130.848C125.945 130.87 126.524 131.069 127.092 131.446C127.691 131.844 128.099 132.333 128.318 132.915C128.542 133.49 128.517 134.117 128.244 134.799L128.003 134.454C128.512 134.075 129.093 133.883 129.745 133.879C130.41 133.873 131.062 134.081 131.699 134.505ZM135.471 145.999C134.88 145.606 134.436 145.121 134.137 144.541C133.851 143.959 133.727 143.345 133.764 142.698C133.807 142.043 134.03 141.412 134.432 140.805C134.84 140.191 135.335 139.741 135.917 139.455C136.499 139.169 137.111 139.049 137.753 139.094C138.395 139.14 139.015 139.361 139.614 139.758C140.22 140.161 140.669 140.649 140.96 141.224C141.259 141.803 141.386 142.413 141.34 143.056C141.303 143.703 141.08 144.334 140.672 144.948C140.27 145.554 139.775 146.004 139.188 146.298C138.614 146.589 137.999 146.713 137.344 146.671C136.694 146.62 136.07 146.396 135.471 145.999ZM135.959 145.264C136.402 145.558 136.86 145.722 137.331 145.754C137.807 145.779 138.261 145.677 138.693 145.449C139.138 145.217 139.518 144.865 139.833 144.39C140.153 143.908 140.33 143.421 140.366 142.929C140.409 142.443 140.324 141.988 140.111 141.567C139.903 141.138 139.581 140.778 139.145 140.489C138.71 140.2 138.254 140.043 137.778 140.018C137.307 139.986 136.851 140.081 136.412 140.304C135.972 140.528 135.592 140.881 135.272 141.363C134.957 141.837 134.78 142.324 134.739 142.824C134.704 143.316 134.79 143.776 134.998 144.206C135.211 144.627 135.532 144.98 135.959 145.264ZM141.027 149.602L145.092 143.479L145.885 144.005L144.778 145.673L144.889 145.327C145.37 144.974 145.893 144.812 146.457 144.839C147.027 144.859 147.611 145.067 148.21 145.465L147.675 146.269C147.644 146.249 147.613 146.228 147.582 146.207C147.556 146.179 147.528 146.154 147.497 146.134C146.851 145.705 146.214 145.568 145.585 145.722C144.962 145.868 144.41 146.303 143.93 147.026L141.855 150.152L141.027 149.602ZM148.822 154.861C148.185 154.438 147.713 153.934 147.406 153.35C147.104 152.758 146.973 152.138 147.01 151.491C147.053 150.836 147.275 150.205 147.678 149.598C148.081 148.992 148.565 148.54 149.132 148.244C149.706 147.953 150.306 147.825 150.932 147.86C151.572 147.893 152.175 148.097 152.743 148.474C153.319 148.856 153.74 149.326 154.008 149.885C154.288 150.441 154.4 151.041 154.341 151.686C154.288 152.323 154.058 152.948 153.65 153.563C153.624 153.602 153.592 153.642 153.553 153.683C153.527 153.722 153.499 153.765 153.468 153.812L148.138 150.273L148.548 149.655L153.435 152.899L152.946 152.927C153.24 152.484 153.404 152.027 153.436 151.556C153.482 151.082 153.406 150.639 153.209 150.228C153.011 149.817 152.698 149.469 152.271 149.186C151.851 148.907 151.409 148.754 150.946 148.726C150.482 148.698 150.041 148.798 149.622 149.024C149.203 149.25 148.844 149.588 148.545 150.039L148.46 150.168C148.15 150.634 147.977 151.113 147.942 151.605C147.92 152.095 148.024 152.562 148.256 153.006C148.5 153.449 148.859 153.827 149.333 154.142C149.707 154.39 150.097 154.553 150.503 154.633C150.917 154.717 151.332 154.701 151.746 154.584L151.856 155.43C151.367 155.576 150.86 155.598 150.334 155.495C149.816 155.398 149.312 155.187 148.822 154.861ZM44.9336 106.302C44.3582 105.92 44.0182 105.47 43.9137 104.953C43.8091 104.435 43.9452 103.892 44.322 103.325L48.1393 97.5745L48.9674 98.1243L45.1812 103.828C44.9437 104.186 44.8499 104.521 44.8997 104.834C44.9573 105.152 45.1571 105.425 45.4993 105.652C45.8647 105.895 46.2377 105.991 46.6181 105.941L46.5148 106.73C46.2534 106.769 45.9829 106.746 45.7032 106.661C45.4312 106.582 45.1747 106.462 44.9336 106.302ZM45.6879 98.8879L46.1447 98.1997L49.9355 100.716L49.4787 101.404L45.6879 98.8879ZM55.7041 104.462C56.2018 104.792 56.5727 105.178 56.8169 105.62C57.074 106.06 57.1785 106.544 57.1304 107.072C57.09 107.605 56.8737 108.167 56.4814 108.758L54.1198 112.316L53.2917 111.766L55.599 108.29C56.0275 107.645 56.1868 107.05 56.077 106.507C55.9802 105.961 55.6401 105.494 55.0569 105.107C54.6215 104.818 54.1811 104.655 53.7358 104.617C53.3034 104.576 52.8868 104.664 52.486 104.879C52.0981 105.092 51.7493 105.432 51.4396 105.899L49.3026 109.118L48.4745 108.568L54.2197 99.9137L55.0478 100.463L52.2526 104.674L52.2984 104.251C52.787 103.937 53.3278 103.797 53.9206 103.832C54.5186 103.859 55.1131 104.069 55.7041 104.462ZM60.894 116.813L61.7922 115.46L61.9043 115.215L63.4064 112.952C63.7523 112.431 63.8704 111.933 63.7607 111.456C63.6588 110.986 63.3202 110.559 62.7448 110.177C62.3482 109.914 61.9272 109.73 61.4817 109.624C61.0363 109.519 60.6169 109.493 60.2235 109.545L60.2606 108.679C60.7472 108.621 61.2546 108.667 61.783 108.816C62.3165 108.957 62.8244 109.188 63.3065 109.508C64.0996 110.035 64.5784 110.638 64.7428 111.319C64.9202 111.997 64.743 112.736 64.2113 113.537L61.6872 117.339L60.894 116.813ZM58.7441 115.47C58.2853 115.165 57.9339 114.825 57.6899 114.451C57.4587 114.073 57.3415 113.693 57.3381 113.31C57.34 112.919 57.457 112.548 57.6893 112.198C57.9009 111.88 58.1658 111.641 58.4839 111.482C58.8149 111.321 59.2031 111.276 59.6485 111.348C60.1068 111.417 60.6276 111.645 61.2108 112.032L63.322 113.434L62.9116 114.052L60.8237 112.666C60.2328 112.274 59.7509 112.105 59.3783 112.16C59.0134 112.22 58.7277 112.406 58.5213 112.717C58.289 113.067 58.2392 113.437 58.372 113.828C58.5048 114.219 58.8161 114.576 59.306 114.902C59.7726 115.211 60.2427 115.372 60.7165 115.384C61.2032 115.394 61.6585 115.248 62.0824 114.947L61.8896 115.642C61.4657 115.943 60.9793 116.085 60.4305 116.068C59.8894 116.056 59.3273 115.857 58.7441 115.47ZM71.866 115.19C72.3637 115.521 72.7346 115.907 72.9788 116.349C73.2359 116.789 73.3404 117.272 73.2923 117.801C73.2519 118.334 73.0356 118.896 72.6433 119.487L70.2817 123.045L69.4535 122.495L71.7609 119.019C72.1894 118.374 72.3487 117.779 72.2389 117.236C72.142 116.69 71.802 116.223 71.2188 115.836C70.7834 115.547 70.343 115.383 69.8977 115.346C69.4653 115.305 69.0487 115.392 68.6479 115.608C68.26 115.821 67.9112 116.161 67.6015 116.628L65.4645 119.847L64.6363 119.297L68.7013 113.173L69.4945 113.7L68.3795 115.38L68.4603 114.979C68.9489 114.665 69.4896 114.526 70.0825 114.561C70.6805 114.588 71.275 114.798 71.866 115.19ZM78.219 128.314L79.9746 120.657L80.7677 121.183L79.0964 128.258L78.7349 128.017L84.6635 123.77L85.375 124.242L83.7387 131.339L83.3771 131.099L89.2824 126.836L90.0406 127.339L83.6544 131.922L82.8729 131.403L84.3663 124.698L84.6113 124.861L79.0005 128.832L78.219 128.314ZM90.3138 136.426C89.6762 136.003 89.2041 135.499 88.8975 134.915C88.596 134.323 88.4641 133.703 88.5016 133.056C88.5444 132.401 88.767 131.77 89.1697 131.164C89.5723 130.557 90.0568 130.106 90.6231 129.809C91.1972 129.518 91.7975 129.39 92.424 129.425C93.0634 129.458 93.667 129.662 94.2346 130.039C94.8101 130.421 95.2316 130.891 95.4994 131.45C95.78 132.006 95.8912 132.606 95.833 133.251C95.7798 133.888 95.5494 134.514 95.1416 135.128C95.1158 135.167 95.0835 135.207 95.0448 135.248C95.019 135.287 94.9906 135.33 94.9596 135.377L89.6292 131.838L90.0395 131.22L94.9267 134.464L94.4375 134.492C94.7318 134.049 94.8953 133.592 94.928 133.121C94.9736 132.647 94.8977 132.205 94.7002 131.793C94.5026 131.382 94.19 131.035 93.7623 130.751C93.3424 130.472 92.9008 130.319 92.4374 130.291C91.9739 130.264 91.5328 130.363 91.1139 130.589C90.695 130.815 90.3358 131.153 90.0364 131.604L89.9512 131.733C89.6415 132.199 89.469 132.679 89.4338 133.17C89.4114 133.66 89.5159 134.127 89.7472 134.572C89.9913 135.014 90.3506 135.392 90.825 135.707C91.1982 135.955 91.5881 136.119 91.9947 136.198C92.409 136.283 92.8232 136.266 93.2371 136.149L93.3475 136.995C92.8585 137.141 92.3512 137.163 91.8255 137.06C91.3076 136.963 90.8037 136.752 90.3138 136.426ZM95.4907 139.779L101.236 131.124L102.064 131.674L96.3188 140.329L95.4907 139.779ZM101.827 144.069C101.22 143.667 100.764 143.173 100.457 142.589C100.164 142.002 100.036 141.385 100.073 140.737C100.116 140.082 100.338 139.452 100.741 138.845C101.149 138.231 101.644 137.781 102.226 137.495C102.807 137.209 103.423 137.091 104.073 137.142C104.731 137.197 105.363 137.426 105.969 137.829C106.49 138.175 106.894 138.588 107.179 139.069C107.465 139.55 107.594 140.073 107.567 140.637L106.67 140.647C106.667 140.196 106.558 139.794 106.345 139.44C106.132 139.085 105.843 138.787 105.478 138.544C105.042 138.255 104.582 138.096 104.098 138.066C103.619 138.028 103.16 138.121 102.72 138.344C102.281 138.568 101.901 138.92 101.581 139.402C101.261 139.885 101.083 140.372 101.048 140.864C101.013 141.355 101.103 141.819 101.319 142.253C101.539 142.68 101.868 143.038 102.303 143.327C102.669 143.569 103.056 143.72 103.465 143.779C103.874 143.837 104.284 143.785 104.696 143.621L105.035 144.451C104.531 144.688 103.999 144.772 103.44 144.703C102.886 144.626 102.348 144.415 101.827 144.069ZM108.95 148.798C108.359 148.405 107.914 147.92 107.615 147.34C107.329 146.759 107.205 146.144 107.243 145.497C107.286 144.842 107.508 144.211 107.911 143.604C108.319 142.99 108.813 142.54 109.395 142.254C109.977 141.968 110.589 141.848 111.231 141.893C111.873 141.939 112.494 142.16 113.092 142.558C113.699 142.96 114.148 143.449 114.439 144.023C114.738 144.602 114.864 145.213 114.819 145.855C114.781 146.502 114.559 147.133 114.151 147.747C113.748 148.353 113.254 148.803 112.667 149.097C112.092 149.388 111.478 149.512 110.823 149.47C110.173 149.419 109.549 149.195 108.95 148.798ZM109.438 148.063C109.881 148.357 110.338 148.521 110.809 148.553C111.286 148.578 111.74 148.476 112.172 148.248C112.617 148.017 112.996 147.664 113.311 147.189C113.631 146.707 113.809 146.22 113.844 145.728C113.887 145.242 113.802 144.787 113.589 144.366C113.381 143.937 113.059 143.577 112.624 143.288C112.189 142.999 111.733 142.842 111.256 142.817C110.785 142.785 110.33 142.88 109.89 143.104C109.45 143.327 109.071 143.68 108.751 144.162C108.436 144.636 108.258 145.123 108.218 145.623C108.182 146.115 108.269 146.575 108.477 147.005C108.69 147.426 109.01 147.779 109.438 148.063ZM126.261 151.299C126.758 151.629 127.125 152.013 127.362 152.45C127.611 152.884 127.708 153.363 127.652 153.886C127.604 154.414 127.383 154.974 126.991 155.565L124.63 159.122L123.801 158.572L126.109 155.097C126.537 154.451 126.704 153.862 126.61 153.329C126.529 152.793 126.208 152.34 125.648 151.968C125.228 151.689 124.804 151.536 124.374 151.508C123.957 151.478 123.552 151.573 123.159 151.794C122.779 152.012 122.434 152.355 122.124 152.821L119.987 156.041L119.159 155.491L121.467 152.015C121.895 151.37 122.062 150.78 121.968 150.247C121.879 149.706 121.554 149.25 120.994 148.879C120.582 148.605 120.161 148.454 119.732 148.427C119.307 148.391 118.898 148.484 118.505 148.705C118.125 148.923 117.78 149.265 117.47 149.732L115.333 152.951L114.505 152.401L118.57 146.278L119.363 146.804L118.264 148.461L118.329 148.084C118.81 147.765 119.339 147.617 119.916 147.642C120.507 147.664 121.086 147.864 121.653 148.24C122.252 148.638 122.661 149.128 122.879 149.71C123.103 150.284 123.078 150.912 122.805 151.593L122.564 151.248C123.073 150.869 123.654 150.678 124.306 150.674C124.971 150.667 125.623 150.876 126.261 151.299ZM130.138 162.863C129.5 162.439 129.028 161.936 128.721 161.351C128.42 160.759 128.288 160.139 128.325 159.492C128.368 158.837 128.591 158.206 128.993 157.6C129.396 156.993 129.881 156.542 130.447 156.246C131.021 155.955 131.621 155.826 132.248 155.861C132.887 155.894 133.491 156.098 134.058 156.475C134.634 156.857 135.055 157.328 135.323 157.886C135.604 158.442 135.715 159.043 135.657 159.687C135.604 160.324 135.373 160.95 134.965 161.564C134.94 161.603 134.907 161.643 134.869 161.685C134.843 161.723 134.814 161.766 134.783 161.813L129.453 158.274L129.863 157.656L134.751 160.9L134.261 160.929C134.556 160.485 134.719 160.028 134.752 159.557C134.797 159.083 134.721 158.641 134.524 158.229C134.326 157.818 134.014 157.471 133.586 157.187C133.166 156.908 132.725 156.755 132.261 156.727C131.798 156.7 131.357 156.799 130.938 157.025C130.519 157.251 130.16 157.59 129.86 158.041L129.775 158.169C129.465 158.635 129.293 159.115 129.258 159.607C129.235 160.096 129.34 160.563 129.571 161.008C129.815 161.45 130.174 161.828 130.649 162.143C131.022 162.391 131.412 162.555 131.818 162.634C132.233 162.719 132.647 162.702 133.061 162.585L133.171 163.431C132.682 163.577 132.175 163.599 131.649 163.496C131.131 163.399 130.627 163.188 130.138 162.863ZM137.714 167.892C137.13 167.505 136.693 167.024 136.402 166.45C136.119 165.881 136 165.275 136.045 164.633C136.096 163.984 136.325 163.351 136.733 162.737C137.146 162.115 137.639 161.659 138.213 161.367C138.787 161.076 139.389 160.955 140.018 161.003C140.66 161.048 141.273 161.264 141.856 161.652C142.392 162.008 142.791 162.446 143.051 162.966C143.318 163.49 143.422 164.069 143.361 164.701C143.313 165.33 143.067 165.979 142.623 166.647C142.184 167.308 141.686 167.789 141.127 168.091C140.568 168.392 139.993 168.525 139.4 168.49C138.82 168.453 138.258 168.253 137.714 167.892ZM138.26 167.196C138.695 167.485 139.148 167.646 139.62 167.678C140.104 167.708 140.562 167.609 140.994 167.381C141.438 167.149 141.818 166.796 142.133 166.322C142.453 165.84 142.631 165.353 142.666 164.861C142.709 164.374 142.62 163.918 142.399 163.491C142.191 163.062 141.87 162.702 141.434 162.413C141.007 162.13 140.555 161.975 140.078 161.95C139.607 161.917 139.152 162.013 138.712 162.236C138.272 162.46 137.892 162.813 137.572 163.295C137.258 163.769 137.08 164.256 137.039 164.756C137.004 165.248 137.091 165.708 137.298 166.138C137.512 166.559 137.832 166.912 138.26 167.196ZM140.12 169.405L141.343 167.562L142.246 166.38L142.95 165.066L145.83 160.727L146.658 161.277L140.913 169.932L140.12 169.405Z" fill="#D9D9D9"/>
</svg>
