<svg width="127" height="127" viewBox="0 0 127 127" fill="none" xmlns="http://www.w3.org/2000/svg">
<path d="M111.312 0C107.257 0 103.271 1.58949 100.213 4.6413L47.7052 56.9566L46.5391 58.1222L46.2211 59.7806L42.5637 78.3246L40.9205 86.1025L48.6964 84.46L67.2485 80.8042L68.9076 80.4863L70.0737 79.3207L122.412 26.8358C124.604 24.6371 126.096 21.8391 126.7 18.7943C127.304 15.7495 126.993 12.5942 125.806 9.72579C124.619 6.85738 122.609 4.40424 120.03 2.67539C117.451 0.946549 114.418 0.019347 111.312 0.0105958V0ZM111.312 10.2787C112.558 10.2787 113.772 10.9145 114.959 12.096C117.323 14.459 117.323 17.0128 114.959 19.3811L63.607 70.7004L54.49 72.523L56.3187 63.4099L107.671 12.0801C108.853 10.8986 110.067 10.2628 111.312 10.2628V10.2787ZM0 21.0342V127H106.012V57.1262L95.4105 67.7227V116.403H10.6012V31.6308H59.3029L69.9041 21.0342H0Z" fill="#D9D9D9"/>
</svg>
